<svg xmlns="http://www.w3.org/2000/svg" style="display:none"><symbol id="icon-logo" viewBox="0 0 102 32"><path fill="#1f8459" fill-rule="evenodd" d="M16.875 4.682a1.61 1.61 0 0 1 2.274 0l5.882 5.882-5.908 5.64a1.609 1.609 0 0 1-2.222-2.327l1.814-1.731h-3.92a5.683 5.683 0 1 0 0 11.366h7.935a1.609 1.609 0 0 1 0 3.217h-7.935a8.9 8.9 0 1 1 0-17.8h4.052l-1.973-1.973a1.61 1.61 0 0 1 0-2.274" clip-rule="evenodd"/><path fill="#1f8459" d="M37.203 14.655a3.64 3.64 0 0 1 1.295-1.257q.815-.455 1.852-.455v2.677h-.685q-1.222 0-1.852.564-.61.565-.61 1.967v5.026H34.61V13.089h2.592zm14.427 3.259q0 .546-.074.983h-7.498q.093 1.094.778 1.712.685.62 1.684.62 1.444 0 2.055-1.22h2.796q-.444 1.456-1.703 2.403-1.26.93-3.092.929-1.48 0-2.666-.638a4.73 4.73 0 0 1-1.833-1.839q-.648-1.184-.648-2.731 0-1.565.648-2.75a4.5 4.5 0 0 1 1.815-1.82q1.166-.639 2.684-.638 1.463 0 2.61.619a4.3 4.3 0 0 1 1.796 1.766q.648 1.129.648 2.604m-2.684-.728q-.019-.984-.722-1.566-.704-.6-1.722-.601-.963 0-1.63.583-.647.564-.795 1.584zm9.279-2.003h-1.796v7.994h-2.63v-7.994h-1.166v-2.094H53.8v-.51q0-1.857 1.074-2.732 1.072-.873 3.24-.819v2.149q-.945-.019-1.315.31-.37.327-.37 1.183v.419h1.796zm11.362-2.094v10.088h-2.61v-1.275a3.5 3.5 0 0 1-1.315 1.038q-.795.364-1.74.364-1.204 0-2.13-.491a3.7 3.7 0 0 1-1.462-1.475q-.518-.984-.518-2.331v-5.918h2.592v5.554q0 1.2.61 1.857.611.637 1.667.637 1.073 0 1.685-.637.61-.656.61-1.857v-5.554zm8.241-.146q1.834 0 2.962 1.147 1.13 1.13 1.13 3.169v5.918h-2.593v-5.572q0-1.203-.61-1.84-.612-.655-1.667-.655-1.073 0-1.703.656-.61.636-.61 1.839v5.572h-2.593V13.089h2.592v1.256a3.5 3.5 0 0 1 1.315-1.02 4.1 4.1 0 0 1 1.777-.382m5.89 5.153q0-1.53.61-2.713.63-1.184 1.704-1.82a4.6 4.6 0 0 1 2.388-.638 4.34 4.34 0 0 1 1.907.437q.907.419 1.444 1.129V9.7h2.63v13.476h-2.63v-1.493q-.48.746-1.351 1.201-.87.456-2.018.456a4.46 4.46 0 0 1-2.37-.656q-1.074-.655-1.703-1.84-.612-1.2-.611-2.749m8.072.037q0-.93-.37-1.584a2.5 2.5 0 0 0-1-1.02 2.65 2.65 0 0 0-1.352-.364q-.721 0-1.333.346-.61.345-1 1.02-.37.654-.37 1.565t.37 1.603q.39.674 1 1.038.63.364 1.333.364.722 0 1.352-.346a2.67 2.67 0 0 0 1-1.02q.37-.674.37-1.602"/></symbol><symbol id="icon-food" viewBox="0 0 34 34"><rect width="34" height="34" fill="#e4ece9" rx="17"/><path fill="#1f8459" d="M23.188 10.813V23.75a.562.562 0 0 1-1.125 0v-3.375h-3.375a.56.56 0 0 1-.563-.562c.026-1.348.196-2.689.508-4 .687-2.847 1.99-4.755 3.77-5.517a.562.562 0 0 1 .785.517m-6.758-.093a.565.565 0 0 0-.856-.393.56.56 0 0 0-.254.578l.547 3.283h-1.68v-3.376a.563.563 0 0 0-1.124 0v3.376h-1.68l.547-3.283a.563.563 0 1 0-1.11-.185l-.562 3.375a1 1 0 0 0-.008.092 3.38 3.38 0 0 0 2.813 3.328v6.235a.562.562 0 0 0 1.124 0v-6.235A3.38 3.38 0 0 0 17 14.187a1 1 0 0 0-.008-.092z"/></symbol><symbol id="icon-remove" viewBox="0 0 12 12"><path fill="#b51919" d="M9.773 8.977a.563.563 0 0 1-.797.797L6 6.797 3.023 9.773a.563.563 0 0 1-.797-.797L5.203 6 2.227 3.023a.563.563 0 1 1 .797-.797L6 5.203l2.977-2.977a.563.563 0 1 1 .797.797L6.797 6z"/></symbol><symbol id="icon-chevron-down" viewBox="0 0 20 20"><path fill="#cdd5d2" d="m16.692 7.942-6.25 6.25a.625.625 0 0 1-.884 0l-6.25-6.25a.625.625 0 0 1 .884-.884L10 12.866l5.808-5.808a.625.625 0 0 1 .884.884"/></symbol><symbol id="icon-transport" viewBox="0 0 34 34"><rect width="34" height="34" fill="#e4ece9" rx="17"/><path fill="#1f8459" d="M14.75 10.25a.56.56 0 0 1 .563-.562h3.374a.562.562 0 1 1 0 1.124h-3.375a.56.56 0 0 1-.562-.562m10.688 6.188a.56.56 0 0 1-.563.562h-.562v5.625a1.125 1.125 0 0 1-1.125 1.125H21.5a1.125 1.125 0 0 1-1.125-1.125V21.5h-6.75v1.125A1.125 1.125 0 0 1 12.5 23.75h-1.687a1.125 1.125 0 0 1-1.126-1.125V17h-.562a.563.563 0 0 1 0-1.125h.799l1.926-3.37a1.13 1.13 0 0 1 .976-.568h8.348a1.12 1.12 0 0 1 .976.567l1.926 3.371h.799a.56.56 0 0 1 .563.563m-11.25 2.25a.56.56 0 0 0-.563-.563H12.5a.562.562 0 1 0 0 1.125h1.125a.56.56 0 0 0 .563-.562m7.874 0a.56.56 0 0 0-.562-.563h-1.125a.562.562 0 1 0 0 1.125H21.5a.56.56 0 0 0 .563-.562"/></symbol><symbol id="icon-services" viewBox="0 0 34 34"><rect width="34" height="34" fill="#e4ece9" rx="17"/><path fill="#1f8459" d="M24.313 14.75a5.063 5.063 0 0 1-7.098 4.64l-3.66 4.235-.028.03a2.25 2.25 0 0 1-3.182-3.183l.03-.027 4.234-3.66a5.068 5.068 0 0 1 5.874-6.946.563.563 0 0 1 .277.928l-2.635 2.858.398 1.853 1.852.397 2.858-2.638a.562.562 0 0 1 .928.276c.1.405.151.82.151 1.237"/></symbol><symbol id="icon-others" viewBox="0 0 34 34"><rect width="34" height="34" fill="#e4ece9" rx="17"/><path fill="#1f8459" d="M23.188 10.813H10.813a1.125 1.125 0 0 0-1.126 1.124v10.688a.563.563 0 0 0 .815.503l1.998-1 1.998 1a.56.56 0 0 0 .504 0l1.998-1 1.998 1a.56.56 0 0 0 .504 0l1.998-1 1.998 1a.562.562 0 0 0 .814-.503V11.938a1.125 1.125 0 0 0-1.125-1.126m-2.813 7.312h-6.75a.562.562 0 1 1 0-1.125h6.75a.562.562 0 1 1 0 1.125m0-2.25h-6.75a.562.562 0 1 1 0-1.125h6.75a.562.562 0 1 1 0 1.125"/></symbol><symbol id="icon-accommodation" viewBox="0 0 34 34"><rect width="34" height="34" fill="#e4ece9" rx="17"/><path fill="#1f8459" d="M22.625 13.063H9.688v-1.688a.562.562 0 1 0-1.126 0v11.25a.562.562 0 1 0 1.126 0v-2.25h14.625v2.25a.562.562 0 1 0 1.125 0v-6.75a2.81 2.81 0 0 0-2.813-2.812M9.688 14.187h5.062v5.063H9.688z"/></symbol></svg>
