<?xml version="1.0" encoding="UTF-8"?>
<svg xmlns="http://www.w3.org/2000/svg" style="display:none">
  <!-- Simple, semantic icons for theme toggle (kept minimal for maintenance) -->
  <symbol id="icon-lightbulb" viewBox="0 0 24 24" aria-hidden="true">
    <path fill="currentColor" d="M9 18h6v1a1 1 0 0 1-1 1H10a1 1 0 0 1-1-1v-1z"/>
    <path fill="currentColor" d="M12 2a6 6 0 0 0-4 10.6V15a2 2 0 0 0 2 2h4a2 2 0 0 0 2-2v-2.4A6 6 0 0 0 12 2z"/>
  </symbol>

  <symbol id="icon-lightbulb-off" viewBox="0 0 24 24" aria-hidden="true">
    <path fill="currentColor" d="M2 2l20 20-1.4 1.4L2 3.4 3.4 2z"/>
    <path fill="currentColor" d="M9 18h6v1a1 1 0 0 1-1 1H10a1 1 0 0 1-1-1v-1z"/>
    <path fill="currentColor" d="M12 6a4 4 0 0 1 4 4c0 .9-.3 1.8-.9 2.5L12 12V6z" opacity="0.9"/>
  </symbol>

  <!-- Sun icon (used in dark mode) -->
  <symbol id="icon-sun" viewBox="0 0 24 24" aria-hidden="true">
    <circle cx="12" cy="12" r="4" fill="currentColor" />
    <g stroke="currentColor" stroke-width="1.5" stroke-linecap="round">
      <line x1="12" y1="1" x2="12" y2="3" />
      <line x1="12" y1="21" x2="12" y2="23" />
      <line x1="4.2" y1="4.2" x2="5.6" y2="5.6" />
      <line x1="18.4" y1="18.4" x2="19.8" y2="19.8" />
      <line x1="1" y1="12" x2="3" y2="12" />
      <line x1="21" y1="12" x2="23" y2="12" />
      <line x1="4.2" y1="19.8" x2="5.6" y2="18.4" />
      <line x1="18.4" y1="5.6" x2="19.8" y2="4.2" />
    </g>
  </symbol>

  <!-- Moon icon (used in light mode) -->
  <symbol id="icon-moon" viewBox="0 0 24 24" aria-hidden="true">
    <path fill="currentColor" d="M21 12.8A9 9 0 1 1 11.2 3 7 7 0 0 0 21 12.8z"/>
  </symbol>
</svg>
